# xmcd
#
# Track frame offsets: 
#        150
#        14624
#        30965
#        45613
#        60428
#        75975
#        90407
#        105207
#        120545
#        135426
#        150767
#        163036
#        178011
#        192496
#        207893
#        224512
#        238085
#        252401
#        267940
#        284360
#
# Disc length: 3993 seconds
#
# Revision: 0
# Processed by: cddbd v1.5.2PL0 Copyright (c) Steve Scherf et al.
# Submitted via: ExactAudioCopy v0.90b4
#
DISCID=020f9714
DTITLE=Various Artist - Sveriges Bästa Dansband 22
DYEAR=2012
DGENRE=Dansband
TTITLE0=Streaplers - Den Som Lever Får Se
TTITLE1=Matz Bladhs - Himlens Änglar Gråter
TTITLE2=Fernandoz - Se Mig I Ögonen
TTITLE3=BlackJack - Älskade Ängel
TTITLE4=Drifters - Xanadu
TTITLE5=Lasse Stefanz - Längtan Till Havet
TTITLE6=Larz-Kristerz - Visst E' De' Så
TTITLE7=Lotta Engberg - Jag Önskar Att Det Alltid Vore Sommar
TTITLE8=Mats Bergmans - Pamela
TTITLE9=Tommys and Hans Martin - Spegelbild
TTITLE10=Elisa's - Breaking Up Is Hard To Do
TTITLE11=Wizex - Innan Det Är Försent
TTITLE12=Christer Sjögren - Love Me Tender
TTITLE13=Blender - Lever För En Dag
TTITLE14=kindbergs - Nu Reser Vi Västerut
TTITLE15=Titanix - Innan Regnbåge Utan Regn
TTITLE16=Flamingokvintetten - Då Väntar Jag På Dig
TTITLE17=Wahlströms - Stopp Och Belägg
TTITLE18=Lasse Berghagen - Bara Lite Längtan
TTITLE19=Ingmar Nordströms - Ännu Doftar Kärlek
EXTD=
EXTT0=
EXTT1=
EXTT2=
EXTT3=
EXTT4=
EXTT5=
EXTT6=
EXTT7=
EXTT8=
EXTT9=
EXTT10=
EXTT11=
EXTT12=
EXTT13=
EXTT14=
EXTT15=
EXTT16=
EXTT17=
EXTT18=
EXTT19=
PLAYORDER=
